<?xml version="1.0" encoding="utf-8"?>
<!-- Generator: Adobe Illustrator 23.0.2, SVG Export Plug-In . SVG Version: 6.00 Build 0)  -->
<svg version="1.1" id="Layer_1" xmlns="http://www.w3.org/2000/svg" xmlns:xlink="http://www.w3.org/1999/xlink" x="0px" y="0px"
	 viewBox="0 0 600 492.9" style="enable-background:new 0 0 600 492.9;" xml:space="preserve">
<style type="text/css">
	.st0{fill:#EA5A4F;}
	.st1{fill:#FFFFFF;}
</style>
<polygon class="st0" points="286.8,234.1 364.5,73.5 407.2,73.5 407.2,292.1 364,292.1 364,165.1 322.6,247.5 293.6,248 "/>
<circle class="st1" cx="230.8" cy="23.3" r="23.3"/>
<circle class="st0" cx="388.6" cy="23.3" r="23.3"/>
<path class="st1" d="M114,73.5L114,73.5L114,73.5l-62.7-0.1v29.8h18.5L1.1,291.9h44.5l13.2-38.7h77.6l12.9,38.7h44.5L114,73.5z
	 M70.8,217.4l27.6-79.5l26.7,79.5H70.8z"/>
<polygon class="st1" points="550.3,73.5 550.2,73.5 510,161.5 469.2,73.5 422.9,73.5 488.5,202.3 488.5,291.9 530.9,291.9 
	530.9,202.3 581.4,103.3 600,103.3 600,73.5 550.3,73.5 "/>
<polygon class="st1" points="74,416.6 31.4,328.4 0,328.4 0,491.5 31.8,491.5 31.8,396.4 63.2,458.3 84.8,458.3 115.9,396.4 
	115.9,491.5 147.8,491.5 147.8,328.4 116.4,328.4 "/>
<path class="st1" d="M365.6,343.9c-10.8-10.8-26.1-15.6-43.1-15.6h-58.9v163.1h58.9c17,0,32.3-4.8,43.1-15.6
	c18.3-18.3,16.5-42.2,16.5-66.7C382.1,384.7,384,362.3,365.6,343.9z M343.4,453c-5.5,6.6-12.8,10.1-23.8,10.1h-24.1V356.8h24.1
	c11,0,18.3,3.4,23.8,10.1c6,7.3,6.9,17.6,6.9,42.4C350.3,434,349.4,445.7,343.4,453z"/>
<path class="st1" d="M580.7,408.8c-6.9-6.4-16.3-10.5-31.2-12.6l-19.2-2.7c-6.6-0.9-11.9-3.4-15.1-6.4c-3.4-3.2-4.8-7.6-4.8-11.7
	c0-11.2,8.2-20.6,25.2-20.6c10.8,0,23.1,1.4,33.5,11.2l20.2-19.9c-14-13.5-30.2-19-52.7-19c-35.3,0-56.8,20.4-56.8,49.5
	c0,13.7,3.9,24.3,11.7,32.1c7.3,7.1,17.6,11.5,31.6,13.5l19.7,2.8c7.6,1.1,11.2,2.7,14.4,5.7c3.4,3.2,5,8,5,13.7
	c0,13.1-10.1,20.2-28.9,20.2c-15.1,0-29.1-3.4-39.4-13.7l-20.6,20.6c16,16.3,34.8,21.5,59.6,21.5c34.1,0,60.5-17.9,60.5-49.5
	C593.3,428.9,589.4,417,580.7,408.8z"/>
<polygon class="st1" points="221.5,328.4 221.5,328.3 178.6,328.3 178.6,350.6 189.7,350.6 189.7,491.5 221.6,491.5 221.6,328.4 "/>
<polygon class="st1" points="418,328.4 418,328.4 406.9,328.4 406.9,350.7 418,350.7 418,491.5 449.9,491.5 449.9,328.4 "/>
<path class="st1" d="M251.1,73.1c0,0-43.2,0.4-42.3,0.4v218.8H252V165.1l31,61.3l21.3-43.8L251.1,73.1z"/>
</svg>
